<?xml version="1.0" standalone="no"?>
<!DOCTYPE svg PUBLIC "-//W3C//DTD SVG 20010904//EN"
 "http://www.w3.org/TR/2001/REC-SVG-20010904/DTD/svg10.dtd">
<svg version="1.0" xmlns="http://www.w3.org/2000/svg"
 width="799.000000pt" height="799.000000pt" viewBox="0 0 799.000000 799.000000"
 preserveAspectRatio="xMidYMid meet">
<metadata>
Created by potrace 1.11, written by Peter Selinger 2001-2013
</metadata>
<g transform="translate(0.000000,799.000000) scale(0.100000,-0.100000)"
fill="#000000" stroke="none">
<path d="M3515 7440 c-3 -5 -1 -10 4 -10 6 0 11 5 11 10 0 6 -2 10 -4 10 -3 0
-8 -4 -11 -10z"/>
<path d="M3257 7433 c-11 -10 -8 -53 3 -53 6 0 5 -6 -2 -14 -10 -11 -16 -11
-27 -2 -17 14 -15 14 -34 -3 -10 -7 -17 -11 -17 -7 0 4 -13 0 -29 -9 -22 -11
-28 -20 -24 -35 3 -11 10 -20 16 -20 6 0 8 -3 5 -6 -10 -9 35 -49 52 -47 10 2
10 0 2 -3 -6 -3 -9 -11 -6 -16 4 -6 2 -8 -4 -4 -6 3 -13 2 -17 -3 -3 -5 -14
-8 -24 -6 -10 2 -18 -3 -18 -10 0 -8 3 -13 6 -12 7 2 11 -7 11 -23 0 -14 -27
-12 -33 3 -4 9 -6 9 -6 -1 -1 -7 -6 -10 -11 -7 -8 5 -7 12 2 23 11 15 11 15
-4 4 -19 -16 -29 -4 -21 26 5 20 15 27 36 23 5 -1 7 4 5 10 -6 17 -38 20 -38
4 0 -21 -29 -45 -48 -39 -14 5 -13 2 4 -13 18 -16 20 -23 15 -50 -1 -5 -6 -1
-12 7 -9 13 -10 12 -5 -2 4 -14 0 -18 -20 -18 -17 0 -23 -4 -18 -12 6 -10 5
-10 -7 -1 -33 27 -84 -28 -60 -66 7 -10 13 -11 30 -1 19 10 20 14 9 28 -11 15
-11 15 3 5 9 -7 19 -11 23 -8 3 3 2 0 -3 -6 -12 -15 -2 -41 12 -32 6 3 7 1 3
-5 -4 -7 -2 -12 3 -12 6 0 11 6 11 13 0 8 3 8 9 -2 13 -21 57 -25 65 -6 3 8 0
15 -6 15 -6 0 -9 3 -5 6 3 4 0 19 -9 35 -11 23 -12 29 -2 29 7 0 5 5 -5 11
-14 8 -16 14 -6 25 14 17 33 19 23 2 -4 -6 -3 -8 4 -4 6 3 13 2 17 -4 3 -5 1
-10 -5 -10 -7 0 -7 -4 1 -13 25 -27 89 -3 72 28 -4 5 -3 7 2 3 12 -11 36 12
28 26 -5 8 -3 8 8 0 8 -7 23 -8 34 -4 19 7 19 7 -2 14 -16 5 -23 15 -23 33 0
15 5 23 13 20 6 -2 11 -11 9 -20 -1 -8 2 -18 8 -22 5 -3 10 1 10 9 0 12 7 14
32 9 31 -6 32 -5 16 11 -9 9 -15 23 -12 30 3 9 -3 17 -15 21 -12 3 -26 16 -32
28 -8 19 -8 20 3 7 14 -17 44 -15 66 3 7 6 27 11 44 12 21 1 34 8 39 21 4 10
8 15 8 9 1 -5 5 -3 10 4 6 9 6 22 0 33 -5 10 -6 18 -2 18 4 0 1 5 -8 10 -21
12 -59 1 -59 -17 0 -8 5 -11 12 -7 7 4 8 3 4 -4 -5 -9 -14 -7 -31 4 -13 9 -30
12 -36 8 -7 -4 -9 -3 -5 4 3 6 2 13 -4 17 -5 3 -10 1 -10 -5 0 -6 -5 -8 -10
-5 -6 4 -8 11 -5 16 7 10 1 12 -8 2z m67 -41 c3 -5 -1 -9 -9 -9 -8 0 -12 4 -9
9 3 4 7 8 9 8 2 0 6 -4 9 -8z m60 -48 c3 -8 2 -12 -4 -9 -6 3 -10 10 -10 16 0
14 7 11 14 -7z m-204 -34 c0 -5 -4 -10 -10 -10 -5 0 -10 5 -10 10 0 6 5 10 10
10 6 0 10 -4 10 -10z m-138 -197 c-6 -2 -10 -8 -7 -13 3 -4 -3 -14 -12 -21
-12 -10 -14 -10 -9 -1 5 8 0 12 -16 12 l-23 0 25 14 c14 8 32 14 40 14 10 0
11 -1 2 -5z"/>
<path d="M3195 7419 c-9 -14 -2 -20 14 -10 8 6 9 11 3 15 -6 3 -14 1 -17 -5z"/>
<path d="M3351 7277 c-8 -10 -7 -14 2 -14 8 0 14 6 14 14 0 7 -1 13 -2 13 -2
0 -8 -6 -14 -13z"/>
<path d="M3305 7250 c-3 -6 1 -7 9 -4 18 7 21 14 7 14 -6 0 -13 -4 -16 -10z"/>
<path d="M2974 7194 c-10 -8 -14 -13 -7 -10 6 4 14 2 18 -4 9 -15 24 -12 21 5
-3 23 -11 26 -32 9z"/>
<path d="M2990 7148 c0 -4 4 -8 9 -8 6 0 12 4 15 8 3 5 -1 9 -9 9 -8 0 -15 -4
-15 -9z"/>
<path d="M3184 7128 c-3 -4 2 -8 10 -8 8 0 17 4 20 8 3 5 -2 9 -10 9 -8 0 -17
-4 -20 -9z"/>
<path d="M2887 7056 c-10 -11 -15 -15 -12 -8 8 16 -16 15 -39 -3 -24 -18 -40
-19 -30 -2 6 9 4 9 -8 -1 -15 -12 -51 -12 -64 1 -12 12 -24 8 -24 -9 0 -8 4
-13 9 -9 5 3 20 0 33 -6 27 -12 34 -45 12 -53 -8 -3 -13 -2 -10 3 9 13 -41 20
-55 7 -9 -8 -10 -7 -6 6 3 9 -1 22 -10 30 -15 12 -16 10 -9 -16 6 -24 4 -27
-9 -22 -21 8 -48 -7 -68 -38 -14 -21 -15 -25 -1 -30 10 -4 13 -2 8 7 -5 9 -4
9 5 1 16 -15 3 -44 -21 -44 -11 0 -16 4 -12 11 3 6 1 15 -5 19 -14 8 -91 -27
-91 -41 0 -5 -7 -9 -15 -9 -8 0 -15 -6 -15 -13 0 -16 -33 -44 -46 -40 -9 3
-23 -23 -49 -92 -32 -82 -38 -95 -46 -95 -5 0 -14 -11 -19 -25 -5 -14 -14 -25
-19 -25 -5 0 -13 -10 -16 -21 -14 -44 -98 -153 -109 -142 -3 4 -6 1 -6 -6 0
-7 -4 -9 -10 -6 -5 3 -10 2 -10 -4 0 -16 -40 -24 -55 -11 -8 6 -18 9 -24 6
-11 -7 -21 16 -21 48 0 12 -5 27 -12 34 -16 16 -38 -3 -38 -34 0 -13 -6 -27
-13 -31 -19 -11 -47 -98 -47 -143 0 -20 -4 -40 -8 -45 -18 -20 -33 -237 -33
-463 0 -128 3 -237 6 -242 3 -5 8 -50 10 -101 2 -50 9 -97 16 -105 26 -31 -5
-135 -34 -117 -16 9 -87 -31 -92 -52 -2 -11 -7 -90 -10 -175 -3 -85 -8 -188
-11 -228 -5 -57 -3 -80 11 -110 30 -65 42 -95 61 -159 11 -35 22 -63 25 -63 4
0 10 -17 13 -37 10 -59 36 -144 57 -189 10 -23 19 -46 19 -53 0 -6 4 -11 9
-11 5 0 12 -14 16 -30 4 -17 11 -30 16 -30 5 0 9 -17 9 -39 0 -78 27 -127 104
-187 25 -20 26 -25 27 -110 0 -92 19 -264 28 -264 11 0 11 -104 0 -116 -7 -8
-7 -14 0 -19 7 -4 7 -12 -2 -25 -12 -21 -37 -27 -37 -10 0 14 -42 50 -52 44
-5 -3 -16 0 -25 8 -12 9 -15 9 -9 1 4 -7 2 -13 -3 -13 -6 0 -11 5 -11 12 0 6
-3 8 -7 5 -3 -4 3 -16 15 -27 20 -19 31 -60 15 -60 -3 0 -16 8 -27 18 -17 14
-16 12 4 -18 13 -19 20 -32 15 -27 -5 4 -17 -1 -27 -10 -16 -14 -21 -15 -27
-4 -5 8 -13 11 -19 7 -6 -3 -9 1 -8 10 1 8 8 19 16 24 10 6 8 11 -9 19 -12 7
-18 17 -15 23 4 7 3 8 -4 4 -7 -4 -12 -2 -12 4 0 6 -11 3 -25 -6 -17 -11 -24
-22 -20 -34 3 -10 0 -22 -6 -26 -8 -4 -9 -3 -5 4 4 7 2 12 -4 12 -7 0 -9 7 -6
16 5 13 4 14 -7 6 -8 -7 -17 -9 -20 -6 -7 7 1 -45 9 -58 3 -4 10 -8 15 -8 6 0
8 4 5 8 -3 5 1 9 9 9 11 0 12 -4 4 -13 -5 -6 -6 -14 -2 -16 4 -3 2 -3 -6 -1
-9 2 -11 -2 -7 -13 4 -10 2 -14 -6 -11 -7 2 -12 11 -10 19 1 9 -6 18 -17 21
-15 3 -18 11 -13 33 2 16 1 25 -4 21 -5 -5 -9 -16 -9 -25 0 -11 -8 -17 -22
-16 -12 0 -21 -4 -20 -10 1 -6 -4 -10 -10 -9 -7 2 -12 -3 -10 -10 1 -6 -5 -11
-13 -9 -8 2 -12 0 -8 -4 4 -3 -1 -18 -12 -31 -10 -13 -16 -31 -13 -40 5 -13 1
-15 -20 -11 -15 3 -27 1 -27 -3 0 -5 -6 -9 -14 -9 -20 0 -28 -30 -17 -67 7
-24 6 -35 -5 -44 -8 -6 -12 -19 -9 -28 2 -9 0 -23 -5 -31 -8 -12 -11 -13 -19
-1 -6 9 -11 10 -15 2 -4 -6 -17 -11 -29 -11 -22 1 -22 1 -2 13 11 7 20 19 20
27 0 8 5 15 10 15 6 0 19 6 30 12 17 11 13 12 -33 13 -40 0 -51 3 -46 13 5 8
4 9 -4 2 -6 -5 -12 -31 -14 -57 -2 -25 -6 -44 -9 -42 -4 2 -12 -3 -19 -11 -7
-8 -17 -12 -23 -8 -6 4 -8 0 -5 -8 6 -16 -38 -43 -47 -28 -3 4 -12 6 -19 3
-16 -6 -9 -54 8 -54 6 0 4 -5 -4 -10 -21 -14 -30 -12 -24 3 4 10 -3 13 -25 9
-27 -4 -30 -7 -24 -33 3 -16 1 -35 -4 -41 -13 -18 -15 -75 -3 -83 15 -10 12
-35 -5 -35 -8 0 -15 -5 -15 -11 0 -6 7 -8 17 -5 16 6 16 5 1 -11 -13 -15 -14
-27 -6 -73 5 -30 11 -82 12 -115 1 -33 5 -65 8 -71 4 -5 6 -24 6 -41 -1 -23
-7 -33 -22 -37 -28 -8 -60 28 -47 53 7 12 5 25 -4 42 -27 47 -35 72 -30 90 4
13 -3 28 -21 47 -24 24 -28 35 -25 80 1 28 0 56 -4 62 -9 15 -49 -26 -42 -44
3 -9 2 -18 -3 -21 -7 -4 -6 -13 0 -25 7 -13 7 -21 0 -25 -6 -3 -8 -23 -5 -43
12 -85 12 -172 1 -172 -6 0 -6 -4 2 -9 17 -11 12 -46 -7 -46 -8 0 -15 8 -17
18 -3 19 -25 73 -48 117 -8 14 -11 40 -9 58 3 17 1 32 -3 33 -5 0 -21 3 -35 5
-20 3 -28 0 -32 -15 -2 -11 -1 -23 5 -29 5 -5 4 -13 -5 -20 -10 -9 -12 -24 -7
-57 7 -47 5 -55 -16 -55 -9 0 -12 9 -8 29 5 23 -1 35 -33 69 -26 27 -43 38
-49 32 -6 -6 -22 -11 -37 -12 -16 -1 -29 -10 -33 -21 -4 -14 -12 -17 -29 -13
-13 3 -26 2 -30 -4 -3 -5 -12 -7 -19 -4 -8 3 -17 1 -21 -5 -3 -6 0 -12 7 -12
7 -1 18 -2 23 -4 6 -1 14 -3 19 -3 5 -1 4 -8 -2 -14 -6 -7 -11 -16 -11 -20 -1
-5 -4 -8 -8 -9 -20 -3 -43 -21 -43 -35 0 -8 -5 -12 -11 -8 -6 4 -9 -1 -8 -12
2 -11 0 -25 -5 -33 -7 -10 -5 -12 5 -6 12 7 12 5 1 -6 -11 -12 -14 -12 -22 1
-12 19 -24 6 -25 -28 0 -16 -5 -26 -12 -25 -7 2 -13 -2 -13 -8 0 -5 -4 -8 -8
-5 -5 3 -19 -4 -30 -15 -23 -20 -30 -35 -12 -24 5 3 10 2 10 -4 0 -5 -8 -12
-18 -15 -20 -7 -45 -63 -35 -79 3 -6 2 -7 -4 -4 -11 7 -53 -20 -53 -34 0 -6 5
-7 10 -4 23 14 8 -21 -17 -41 -23 -18 -25 -24 -15 -37 10 -12 10 -17 1 -23 -8
-5 -10 -3 -5 7 4 8 1 6 -7 -3 -8 -10 -20 -18 -26 -18 -7 0 -9 -5 -6 -10 4 -6
3 -10 -2 -9 -30 5 -43 -3 -43 -28 0 -23 2 -25 13 -12 6 8 11 12 9 10 -1 -2 5
-13 15 -23 9 -10 11 -18 5 -18 -6 0 -9 -7 -6 -15 8 -19 0 -19 -19 0 -13 13
-16 12 -21 -8 -3 -12 -22 -33 -41 -47 -39 -28 -46 -51 -14 -47 26 3 45 -24 35
-49 -7 -18 -9 -17 -21 6 l-14 25 0 -30 c0 -35 18 -64 37 -58 6 3 12 1 12 -4 0
-11 -20 -40 -20 -30 0 4 -9 3 -20 -3 -11 -6 -19 -14 -19 -18 3 -20 -2 -32 -15
-32 -18 0 -29 -17 -21 -31 5 -6 11 -5 18 6 10 12 13 7 15 -31 2 -25 -1 -51 -6
-57 -19 -25 -23 -69 -8 -86 19 -21 21 -32 4 -42 -11 -7 -11 -12 0 -30 14 -21
9 -34 -11 -34 -7 0 -13 -13 -15 -29 -2 -18 0 -26 7 -21 6 3 11 0 11 -7 0 -7 3
-23 6 -35 5 -18 2 -23 -14 -23 -12 0 -24 -5 -28 -12 -5 -7 -3 -8 6 -3 10 6 12
4 7 -9 -4 -10 -7 -24 -7 -32 0 -8 -16 -30 -35 -50 -19 -19 -35 -39 -35 -44 0
-6 -6 -10 -14 -10 -8 0 -23 -11 -34 -25 -11 -14 -29 -25 -40 -25 -15 0 -19 -5
-15 -20 3 -11 0 -20 -6 -20 -8 0 -11 -106 -11 -375 l0 -375 3680 0 c3498 0
3680 1 3682 18 3 40 -4 117 -12 133 -6 10 -10 30 -10 44 0 27 -26 63 -32 45
-2 -6 -9 -1 -16 11 -12 19 -11 20 7 14 33 -10 24 11 -14 34 -19 11 -35 25 -35
31 0 15 11 12 27 -8 8 -9 12 -12 9 -5 -4 6 0 14 6 16 10 4 10 6 0 6 -7 1 -10
6 -7 12 4 6 0 9 -11 7 -13 -2 -19 3 -19 17 0 14 6 19 19 17 15 -3 18 1 12 20
-3 13 -6 27 -6 31 0 5 -9 6 -19 2 -14 -4 -23 0 -31 15 -10 18 -8 25 9 41 16
15 19 25 12 37 -5 10 -7 29 -4 44 3 15 -1 36 -10 48 -8 12 -13 30 -10 40 3 11
0 57 -6 102 -6 46 -15 130 -20 188 -9 100 -28 179 -38 153 -3 -7 -10 -13 -17
-13 -10 0 -14 22 -18 100 0 8 3 31 7 50 8 31 7 34 -8 22 -13 -11 -17 -10 -28
10 -7 13 -12 25 -12 28 0 6 -16 48 -27 70 -4 8 -4 25 1 37 5 13 4 25 -2 28 -5
4 -7 11 -4 16 10 16 -5 47 -25 52 -13 3 -17 11 -13 26 3 11 9 18 14 15 5 -3 9
-2 9 3 0 14 -19 38 -30 39 -5 1 -14 2 -20 3 -5 0 -10 11 -10 24 0 12 -7 30
-15 40 -7 11 -12 27 -10 38 2 10 0 19 -6 19 -5 0 -9 14 -9 30 0 17 -4 30 -9
30 -5 0 -7 8 -4 19 3 13 -2 20 -17 24 -13 3 -20 11 -18 19 5 12 -37 106 -52
118 -3 3 -23 33 -44 67 -21 35 -42 63 -47 63 -5 0 -13 8 -17 18 -20 45 -50 83
-79 99 -18 10 -33 20 -33 24 0 15 -72 99 -81 94 -5 -4 -9 0 -9 7 0 17 -56 42
-72 32 -7 -4 -10 -4 -6 1 8 8 -86 57 -109 58 -7 0 -13 3 -13 7 0 14 -82 61
-96 56 -8 -3 -12 -1 -9 4 11 17 -65 39 -173 50 -205 19 -308 32 -407 52 -114
23 -163 30 -362 54 -132 16 -142 16 -158 1 -9 -10 -12 -17 -6 -17 6 0 11 -4
11 -10 0 -5 -7 -10 -15 -10 -8 0 -18 -12 -21 -27 -4 -15 -16 -36 -26 -47 -10
-11 -18 -24 -18 -28 0 -5 -10 -13 -22 -17 l-23 -9 24 -9 c16 -6 20 -12 13 -17
-7 -4 -12 -16 -12 -28 0 -12 -5 -18 -12 -15 -10 3 -14 -19 -17 -87 -7 -154 -5
-210 12 -242 9 -17 16 -40 16 -50 1 -66 10 -173 16 -195 9 -37 12 -247 4 -261
-4 -7 -5 -16 -2 -22 12 -19 14 -114 3 -121 -7 -5 -8 -11 -1 -19 7 -8 6 -20 -3
-37 -10 -21 -10 -27 1 -38 7 -7 11 -17 7 -22 -7 -12 -15 -88 -14 -136 0 -18
-3 -33 -8 -33 -11 0 -28 -40 -37 -87 -3 -17 -13 -37 -21 -44 -8 -6 -14 -16
-14 -21 0 -6 -34 -43 -75 -83 -53 -51 -81 -72 -94 -68 -13 3 -20 -2 -25 -20
-3 -13 -22 -35 -41 -48 -19 -13 -38 -32 -41 -41 -7 -22 -48 -50 -98 -67 -36
-12 -138 -10 -251 5 -16 2 -109 8 -205 14 -199 11 -342 30 -415 54 -27 8 -62
16 -77 16 -14 0 -28 3 -30 8 -1 4 -37 20 -78 36 -97 37 -337 156 -394 195 -25
17 -47 31 -51 31 -6 0 -19 10 -50 37 -7 7 -18 13 -24 13 -6 0 -11 5 -11 10 0
6 -7 10 -15 10 -8 0 -28 13 -45 30 -17 16 -35 30 -41 30 -5 0 -27 17 -48 38
-20 20 -62 56 -92 78 -49 38 -148 126 -174 154 -5 6 -29 31 -52 55 -24 24 -43
46 -43 49 0 4 -31 43 -62 77 -10 10 -18 25 -18 33 0 8 -5 18 -11 22 -6 4 -8
20 -5 39 5 24 2 34 -8 38 -8 3 -17 1 -20 -6 -2 -7 -5 -4 -5 6 -1 9 4 17 9 17
6 0 10 9 10 20 0 13 7 20 19 20 27 0 35 47 9 61 -23 12 -13 32 12 24 10 -3 21
-1 25 5 3 6 11 8 16 5 10 -7 11 4 14 105 3 119 1 112 35 105 26 -6 30 -4 30
14 0 12 6 21 13 21 6 1 22 17 34 36 13 19 18 32 12 28 -7 -4 -10 -1 -7 7 3 8
13 13 23 11 11 -2 14 1 10 8 -6 9 -2 9 12 1 11 -6 23 -7 27 -4 3 3 6 3 6 -2 0
-4 -7 -13 -16 -20 -30 -21 -12 -36 23 -18 34 16 63 12 63 -8 0 -8 -5 -7 -17 2
-11 10 -14 10 -9 1 4 -6 2 -13 -3 -13 -6 -1 -16 -2 -23 -3 -6 0 -13 -7 -16
-15 -5 -14 18 -12 62 5 11 4 16 1 16 -10 0 -9 6 -16 14 -16 9 0 12 7 9 21 -6
23 17 45 28 27 4 -7 13 -7 27 1 30 16 35 14 61 -24 13 -19 29 -35 36 -35 20 0
65 -47 65 -68 0 -12 11 -24 30 -32 17 -7 30 -17 30 -22 0 -13 112 -118 127
-118 6 0 15 -9 18 -20 3 -11 12 -20 19 -20 7 0 25 -14 41 -30 16 -17 33 -30
38 -30 5 0 17 -8 26 -17 23 -25 57 -43 81 -43 11 0 20 -4 20 -9 0 -5 10 -11
23 -14 12 -3 55 -15 96 -27 48 -14 77 -18 84 -11 6 6 19 6 35 0 14 -5 43 -9
66 -9 23 0 76 -1 118 -4 74 -5 77 -4 66 13 -9 15 -17 17 -35 10 -18 -7 -25 -4
-34 13 -11 20 -12 20 -24 4 -7 -9 -15 -18 -18 -19 -9 -4 -47 36 -47 50 0 12
-23 16 -92 16 -16 0 -28 4 -28 10 0 7 -4 7 -12 -1 -15 -15 -38 -16 -38 -2 0 5
3 9 8 7 4 -1 9 3 12 8 2 6 -9 17 -26 25 -38 19 -59 39 -68 68 -5 15 -3 22 6
22 7 0 2 7 -10 16 -12 8 -22 21 -22 28 0 7 -9 21 -20 31 -19 17 -19 35 2 35 5
0 8 -7 4 -15 -11 -31 4 -14 25 27 15 30 19 46 12 57 -15 24 -4 41 26 41 30 0
72 35 50 42 -14 5 60 63 81 63 10 0 15 10 15 31 0 22 9 39 32 60 39 36 46 38
150 43 12 1 28 8 36 16 9 8 33 14 58 14 65 0 149 12 149 21 0 8 -125 13 -405
14 -125 1 -186 -3 -203 -12 -30 -15 -49 -15 -54 -1 -2 6 -30 12 -63 12 -57 2
-80 11 -69 29 3 4 18 5 34 1 26 -5 30 -3 30 17 0 12 10 30 22 40 21 17 22 20
7 37 -22 26 -3 80 26 75 11 -3 23 -9 27 -16 5 -7 8 -3 8 9 0 25 -60 92 -95
105 -29 11 -26 31 4 23 12 -3 20 2 24 16 3 14 11 19 20 15 8 -3 30 1 50 9 24
11 38 12 45 5 8 -8 17 0 32 25 11 19 28 38 37 41 10 4 13 14 10 27 -6 21 0 25
45 33 15 2 43 17 63 33 29 23 32 29 17 31 -11 2 -25 14 -32 28 -9 16 -19 23
-29 19 -8 -3 -38 -3 -66 0 -45 6 -53 10 -63 37 l-11 29 -20 -20 c-28 -28 -65
-27 -83 2 -13 19 -48 123 -48 142 0 12 249 -6 350 -25 52 -10 97 -17 99 -15
10 11 -14 24 -42 23 -18 -1 -41 4 -52 9 -26 14 -213 42 -290 44 -96 3 -98 4
-75 45 11 19 19 38 19 42 -4 25 4 32 36 32 34 0 46 12 25 25 -6 4 -8 11 -5 16
4 5 0 9 -7 9 -8 0 -5 5 6 11 14 9 27 7 56 -6 46 -21 57 -15 66 31 4 20 12 38
19 40 7 3 15 14 18 25 3 10 12 19 21 19 9 0 13 -6 10 -14 -3 -8 -1 -17 5 -21
12 -7 10 29 -2 41 -16 16 -5 22 28 17 38 -6 69 11 61 34 -3 8 4 15 18 19 28 7
69 51 56 59 -4 3 -11 19 -15 35 -4 17 -15 35 -25 40 -23 12 -63 77 -56 89 4 5
2 12 -4 16 -11 7 -10 75 2 90 4 5 19 24 33 41 14 18 25 44 25 58 0 18 7 30 23
36 12 5 16 9 9 9 -8 1 -10 6 -6 13 5 7 7 26 6 42 -2 17 0 27 4 23 10 -10 35
20 45 55 6 22 5 34 -2 39 -8 5 -7 13 4 29 12 18 13 28 6 43 -8 14 -8 17 0 13
6 -4 9 6 6 31 -2 21 -4 41 -4 45 -1 4 -8 5 -16 2 -9 -4 -15 0 -15 10 0 9 5 16
11 16 5 0 7 5 4 10 -4 6 -1 9 7 8 14 -3 16 29 3 72 -4 14 -8 36 -10 50 -1 14
-5 33 -9 42 -4 9 -8 22 -9 30 -2 7 -6 14 -10 16 -4 1 -16 11 -28 23 -17 17
-21 33 -20 84 0 62 -20 125 -40 125 -5 0 -19 20 -31 45 -12 25 -26 45 -31 45
-4 0 -25 11 -45 25 -20 14 -45 25 -55 25 -10 0 -33 15 -50 32 -18 18 -36 31
-40 30 -5 -1 -6 2 -2 8 10 15 -14 40 -39 41 -15 1 -17 2 -4 6 27 7 32 36 8 55
-11 9 -19 22 -18 30 2 7 -7 14 -20 16 -20 3 -23 0 -20 -25 2 -20 -1 -28 -12
-28 -8 0 -15 9 -15 19 0 11 -7 22 -15 24 -8 3 -21 13 -28 23 -10 14 -25 18
-74 16 -51 -2 -62 1 -66 15 -6 26 -106 26 -121 1 -6 -10 -11 -13 -11 -6 0 7
-6 10 -13 7 -7 -2 -24 0 -38 5 -13 5 -19 10 -13 10 12 1 6 61 -6 61 -22 0 -71
-34 -66 -46 3 -7 0 -16 -6 -20 -7 -4 -8 -3 -4 4 11 18 -21 15 -49 -4 -14 -9
-25 -13 -25 -9 0 9 27 35 37 35 4 0 16 15 26 33 11 17 15 29 11 25 -4 -4 -14
-2 -23 5 -14 10 -14 10 -3 -5 9 -11 10 -18 2 -23 -5 -3 -10 -3 -11 2 0 4 -3
30 -6 57 -3 38 -1 51 11 58 9 5 16 18 16 29 0 16 -4 19 -20 14 -12 -4 -27 -1
-35 5 -17 14 -20 66 -5 75 16 10 12 35 -5 29 -22 -9 -19 19 5 39 22 19 26 57
9 89 -6 12 -7 18 -1 14 12 -7 24 22 15 37 -3 7 -3 9 2 5 13 -12 43 35 41 64
-1 14 0 26 3 26 25 -2 41 4 36 13 -4 6 -13 8 -20 5 -16 -6 -25 15 -19 41 4 12
-5 28 -25 46 -17 15 -31 23 -31 17 0 -5 -5 -10 -11 -10 -6 0 -19 -10 -29 -22
l-19 -23 5 28 c2 15 0 36 -6 47 -8 16 -8 20 2 18 9 -2 14 12 16 44 3 41 1 47
-17 45 -11 0 -19 -6 -18 -12 4 -19 -38 -11 -41 9 -3 11 0 16 7 12 7 -5 8 -1 4
10 -4 11 -2 15 4 11 6 -4 13 -1 16 7 7 18 -34 8 -49 -12 -9 -12 -13 -12 -19
-2 -5 9 -4 11 3 6 8 -5 12 2 13 21 0 15 5 37 10 48 9 19 9 18 5 -2 -2 -13 1
-23 7 -23 7 0 5 -5 -3 -10 -8 -5 -10 -10 -5 -10 6 0 17 5 25 10 10 6 11 10 3
10 -7 0 -13 8 -13 19 0 24 19 39 48 36 18 -1 22 3 22 24 -1 28 -23 65 -33 54
-4 -3 -7 -1 -7 5 0 7 3 12 8 12 4 0 13 12 19 27 10 21 10 29 0 42 -9 12 -9 13
1 7 6 -4 12 -2 12 4 0 7 6 8 19 1 21 -12 32 -5 24 15 -4 10 0 12 11 8 12 -5
15 0 14 19 -2 26 -16 29 -42 8 -10 -8 -16 -9 -16 -3 0 6 5 14 10 17 6 4 8 11
5 16 -4 5 -5 9 -3 9 2 0 18 4 36 9 26 8 32 7 32 -5 0 -10 -5 -12 -12 -8 -9 5
-9 2 1 -9 17 -21 31 -22 31 -2 0 22 -67 88 -74 72 -3 -9 -5 -9 -5 0 -1 6 3 14
9 18 5 3 7 12 3 20 -3 8 0 15 5 15 6 0 12 -10 14 -22 2 -13 10 -23 18 -23 10
0 14 8 12 24 -2 13 0 21 5 18 5 -3 9 3 9 14 0 11 -7 19 -18 19 -27 0 -29 16
-6 36 12 11 18 13 14 7 -4 -8 -2 -13 7 -13 7 0 14 7 14 15 0 8 -7 15 -15 15
-12 0 -12 3 -2 15 7 8 18 15 24 14 33 -4 39 1 25 18 -12 15 -12 16 1 8 13 -7
13 -6 2 7 -10 13 -10 17 0 20 10 4 10 9 -2 23 -13 17 -13 18 0 10 13 -8 13 -7
0 10 -14 17 -13 18 22 12 29 -4 36 -3 31 8 -3 8 2 22 11 30 9 9 16 23 16 31 0
19 17 18 29 -3 8 -14 10 -15 11 -3 0 13 1 13 10 0 8 -12 10 -10 10 8 0 13 4
21 9 18 5 -4 8 2 6 11 -2 10 -4 21 -4 24 -1 3 -14 5 -30 5 -17 0 -27 -4 -24
-8 3 -5 11 -7 17 -5 7 3 13 -1 13 -8 0 -15 -18 -15 -29 -1 -10 15 -37 -13 -33
-35 2 -11 0 -17 -6 -14 -5 4 -7 10 -4 15 3 5 -2 10 -10 12 -12 2 -10 9 10 31
32 34 24 50 -20 41 -42 -8 -61 2 -44 22 6 8 10 16 8 18 -2 2 -12 -6 -22 -18z
m-209 -161 c2 -2 -11 -8 -29 -14 -27 -9 -30 -9 -19 4 6 8 9 19 5 26 -5 8 0 7
16 -1 13 -7 25 -14 27 -15z m79 -30 c0 -8 -4 -12 -9 -9 -5 3 -6 10 -3 15 9 13
12 11 12 -6z m-152 -15 c-3 -5 -1 -10 6 -10 8 0 8 -4 -1 -15 -14 -17 -40 -20
-40 -6 0 10 28 41 36 41 3 0 2 -4 -1 -10z m-60 -20 c3 -5 1 -18 -4 -27 -10
-17 -10 -17 -11 0 0 10 -4 15 -10 12 -11 -7 -14 8 -3 18 9 10 21 9 28 -3z
m-85 -65 c0 -8 -4 -15 -10 -15 -5 0 -10 7 -10 15 0 8 5 15 10 15 6 0 10 -7 10
-15z m-365 -433 c-3 -3 -11 0 -18 7 -9 10 -8 11 6 5 10 -3 15 -9 12 -12z m-55
-3 c0 -5 5 -7 10 -4 13 8 80 -13 80 -25 0 -18 -22 -21 -34 -4 -9 12 -15 14
-20 5 -4 -6 -12 -8 -18 -5 -6 4 -8 2 -5 -3 4 -6 0 -13 -8 -17 -14 -5 -21 11
-16 38 1 5 -5 6 -13 3 -10 -4 -13 -1 -9 9 6 16 33 19 33 3z m680 -30 c0 -4 -7
-9 -15 -13 -9 -3 -15 0 -15 8 0 7 7 13 15 13 8 0 15 -4 15 -8z m30 7 c0 -3 -4
-8 -10 -11 -5 -3 -10 -1 -10 4 0 6 5 11 10 11 6 0 10 -2 10 -4z m-734 -29 c8
-18 8 -24 -2 -24 -7 0 -11 4 -8 9 3 4 -2 8 -10 8 -8 0 -18 5 -22 12 -4 7 -3 8
4 4 7 -4 12 -2 12 3 0 19 15 12 26 -12z m-62 -82 c-7 -17 -20 -20 -28 -6 -7
10 3 21 20 21 8 0 11 -6 8 -15z m884 -267 c11 -14 10 -16 -7 -11 -12 3 -21 9
-21 12 0 8 12 23 14 19 1 -2 7 -11 14 -20z m-13 -28 c3 -5 1 -10 -4 -10 -6 0
-11 5 -11 10 0 6 2 10 4 10 3 0 8 -4 11 -10z m-22 -89 c-6 -24 -33 -36 -33
-15 0 8 4 13 9 10 5 -3 11 1 15 9 8 22 15 18 9 -4z m-53 -212 c0 -5 -4 -9 -10
-9 -5 0 -10 7 -10 16 0 8 5 12 10 9 6 -3 10 -10 10 -16z m545 -409 c3 -5 -3
-10 -14 -10 -12 0 -21 5 -21 10 0 6 6 10 14 10 8 0 18 -4 21 -10z m-440 -49
c58 -12 148 -21 250 -24 163 -6 216 -17 245 -52 12 -14 11 -18 -1 -26 -8 -5
-20 -7 -26 -4 -25 9 -12 -22 13 -34 37 -17 84 -63 84 -82 0 -30 -23 -40 -54
-24 -48 25 -95 12 -50 -13 22 -12 9 -32 -20 -32 -13 0 -29 -6 -35 -14 -9 -11
-5 -15 24 -20 19 -4 35 -11 35 -16 0 -6 3 -9 8 -9 33 6 41 -2 31 -28 -5 -14
-25 -44 -44 -65 -19 -21 -35 -45 -35 -53 0 -8 -12 -18 -26 -21 l-27 -7 24 -13
c13 -7 27 -10 30 -8 4 2 12 -2 17 -9 17 -21 2 -55 -29 -69 -17 -7 -32 -23 -35
-35 -4 -13 -16 -24 -33 -28 -36 -8 -91 -55 -95 -80 -1 -11 -12 -24 -24 -30
-25 -11 -24 -28 1 -33 12 -2 17 3 17 17 0 24 0 24 34 12 19 -8 30 -6 48 8 30
23 82 33 97 18 7 -7 11 -8 11 0 0 6 16 13 35 15 30 3 36 0 46 -23 12 -30 6
-49 -17 -49 -8 0 -14 -10 -14 -23 0 -25 -14 -48 -59 -96 -17 -18 -31 -37 -31
-42 0 -5 -7 -9 -15 -9 -8 0 -15 -9 -15 -20 0 -10 -8 -23 -17 -29 -11 -6 -17
-22 -18 -43 0 -19 -5 -34 -12 -34 -7 -1 -17 -2 -21 -3 -4 0 -14 -17 -21 -36
-7 -19 -17 -35 -22 -35 -5 0 -4 -10 3 -22 7 -13 11 -27 9 -33 -2 -5 -3 -26 -2
-46 1 -29 -3 -38 -25 -48 -18 -8 -23 -16 -18 -24 5 -7 1 -4 -9 6 -17 19 -18
19 -40 -7 -12 -14 -26 -26 -30 -26 -13 0 -97 -91 -97 -104 0 -16 -30 -25 -67
-21 -24 2 -25 1 -10 -10 20 -14 22 -35 4 -35 -19 0 -37 21 -37 42 0 10 -4 18
-10 18 -5 0 -10 -5 -10 -11 0 -5 -8 -9 -17 -8 -28 3 -53 -11 -53 -31 0 -10
-12 -33 -27 -50 -24 -29 -25 -35 -14 -66 7 -19 13 -62 14 -97 2 -50 7 -67 25
-85 25 -25 50 -29 58 -8 3 8 13 12 24 9 13 -3 18 0 16 11 -1 8 -5 19 -9 22
-12 12 -8 36 6 31 6 -2 11 -12 9 -21 -2 -13 3 -17 20 -14 13 2 23 10 23 19 0
20 29 49 49 49 22 0 20 -9 -9 -36 -14 -13 -25 -27 -25 -32 0 -5 -9 -21 -20
-35 l-20 -25 30 2 c18 1 32 -4 35 -12 4 -12 9 -12 25 3 11 10 20 13 20 7 0 -6
3 -17 6 -26 5 -12 0 -16 -20 -16 -37 0 -32 -17 5 -18 45 -1 62 -20 56 -59 -5
-27 -3 -33 12 -33 23 0 34 -36 18 -61 -9 -14 -9 -21 1 -31 9 -9 12 -9 12 0 0
7 4 12 9 12 5 0 13 -25 16 -55 4 -30 11 -58 16 -61 15 -9 11 -74 -5 -74 -8 0
-16 -12 -18 -27 -2 -23 -10 -29 -41 -36 -33 -8 -41 -6 -58 12 -13 14 -18 29
-14 41 5 14 2 20 -9 20 -9 0 -16 -4 -16 -10 0 -5 -7 -10 -15 -10 -8 0 -19 -9
-25 -21 -10 -17 -8 -21 10 -26 33 -9 23 -48 -12 -47 -44 2 -48 3 -48 14 0 5
-13 23 -30 40 -25 25 -30 27 -30 12 0 -10 6 -24 13 -31 8 -10 8 -12 0 -7 -24
13 -23 -14 2 -30 17 -11 25 -25 25 -45 0 -16 -3 -29 -6 -29 -16 0 -44 23 -44
36 0 9 -9 28 -20 44 -11 15 -16 30 -13 34 4 3 -1 12 -9 19 -9 6 -18 21 -20 32
-2 13 -12 21 -31 23 -24 3 -26 6 -20 30 3 15 10 29 15 30 14 6 9 19 -18 51
-19 23 -24 38 -20 55 7 27 -2 59 -13 51 -4 -2 -5 9 -3 26 3 22 0 29 -13 29
-11 0 -15 5 -11 15 8 21 -13 74 -35 86 -25 13 -27 104 -3 130 21 23 12 46 -22
59 -21 8 -25 16 -23 43 2 18 -1 38 -5 46 -26 41 3 131 41 131 7 0 12 6 10 12
-1 7 8 14 21 16 17 3 22 8 17 20 -8 20 -8 19 -6 60 1 22 5 31 13 26 6 -4 8 -3
4 4 -3 5 -1 12 6 14 17 6 19 44 3 58 -11 9 -23 9 -45 2 -16 -6 -30 -10 -31 -9
-6 18 -7 47 -1 47 16 0 63 82 53 94 -7 9 -8 83 -2 139 1 5 7 5 14 1 9 -6 9 -5
0 8 -7 8 -9 18 -5 22 4 4 7 22 8 39 1 49 25 95 51 102 l23 5 -21 29 c-19 26
-31 29 -71 22 -5 0 -8 -10 -8 -21 0 -30 -27 -24 -33 6 -5 30 18 94 34 94 5 0
7 5 4 10 -3 6 -15 10 -27 10 -18 0 -19 2 -7 16 12 14 14 14 25 0 16 -23 24
-20 24 9 0 14 5 25 10 25 6 0 10 5 10 10 0 7 -6 7 -19 1 -10 -6 -21 -7 -25 -3
-4 3 -10 1 -14 -5 -4 -7 -18 -10 -30 -6 -24 6 -30 23 -8 23 8 0 16 6 19 13 3
9 9 9 28 -2 19 -10 21 -10 12 0 -19 19 -16 26 17 38 17 5 30 15 30 20 0 17 36
13 51 -6 8 -9 12 -19 10 -22 -2 -3 12 -9 33 -12 40 -7 46 0 16 19 -11 7 -20
18 -20 26 0 7 -6 18 -13 24 -9 8 -11 26 -8 58 6 45 7 47 51 60 58 17 137 18
143 2 3 -10 9 -8 24 5 11 9 35 17 55 17 27 0 37 5 41 20 4 15 14 20 41 20 41
0 48 18 15 38 -15 9 -37 11 -70 7 -46 -6 -65 4 -39 20 6 4 8 9 6 13 -2 4 17 5
43 4 34 -3 51 1 60 12 12 14 10 16 -13 16 -31 0 -35 20 -6 27 49 13 -5 38 -59
27 -17 -4 -29 -9 -27 -13 2 -3 -9 -7 -24 -7 -26 -1 -27 0 -17 17 7 11 15 19
20 19 4 0 5 -5 1 -12 -4 -7 -3 -8 5 -4 6 4 9 11 6 16 -6 10 56 40 81 40 30 0
93 -35 98 -55 10 -37 6 -83 -9 -99 -23 -22 -19 -39 8 -32 12 3 27 6 34 6 8 0
10 25 8 85 -2 46 0 87 6 90 5 4 9 9 9 14 0 10 -84 31 -124 31 -19 0 -36 5 -38
12 -5 15 -140 19 -150 4 -4 -6 -44 -12 -90 -14 -132 -6 -138 -6 -138 -17 0 -5
-5 -3 -10 5 -9 13 -10 13 -10 0 -1 -12 -3 -11 -11 2 -8 14 -3 24 23 49 18 17
26 27 18 23 -12 -5 -12 -4 -3 6 14 15 63 22 63 9 0 -5 15 -9 33 -9 29 1 30 2
15 14 -25 18 -22 36 5 36 13 0 63 -9 112 -19z m-23 -233 c-2 -35 -6 -65 -8
-67 -7 -8 -69 36 -72 51 -4 19 51 78 71 78 10 0 12 -15 9 -62z m-239 -271 c17
-7 17 -7 0 -25 -27 -28 -101 -59 -158 -67 -27 -4 -56 -11 -62 -17 -7 -6 -22
-8 -33 -5 -11 3 -18 2 -15 -3 6 -9 -25 -23 -33 -15 -3 3 0 5 7 5 8 0 9 5 1 19
-8 16 -4 24 20 45 17 14 37 23 45 20 7 -3 19 4 25 16 9 17 18 21 38 17 15 -3
52 0 82 7 30 7 57 12 60 11 3 -1 13 -5 23 -8z m-85 -179 c-2 -6 -10 -14 -16
-16 -7 -2 -10 2 -6 12 7 18 28 22 22 4z m-30 -31 c18 -21 0 -40 -23 -24 -10 8
-15 19 -11 25 9 16 21 15 34 -1z m1030 -633 c-4 -11 -49 -6 -62 7 -6 6 -5 9 3
9 7 0 9 4 6 10 -3 5 8 3 25 -4 17 -7 30 -17 28 -22z m-989 0 c4 3 8 0 9 -7 0
-7 3 -23 6 -37 4 -14 4 -19 0 -12 -3 6 -12 12 -20 12 -9 0 -13 -4 -9 -9 3 -5
0 -13 -7 -17 -7 -4 -10 -4 -6 1 4 4 3 16 -3 26 -8 16 -6 19 12 19 21 0 21 1 6
18 -10 10 -17 23 -17 28 0 5 5 1 11 -9 6 -9 14 -15 18 -13z m51 -10 c0 -8 -19
-13 -24 -6 -3 5 1 9 9 9 8 0 15 -2 15 -3z m-23 -70 c-3 -3 -12 -4 -19 -1 -8 3
-5 6 6 6 11 1 17 -2 13 -5z m333 -188 c0 -15 -14 -35 -21 -30 -15 9 -10 34 6
34 8 0 15 -2 15 -4z m-1095 -346 c-3 -5 -2 -10 4 -10 11 0 9 -26 -4 -37 -4 -4
-5 -2 0 6 6 10 4 12 -5 6 -10 -6 -7 -12 11 -27 l24 -18 -24 -20 c-24 -21 -47
-27 -36 -10 5 8 -20 70 -29 70 -2 0 -2 -18 -1 -40 1 -24 -2 -39 -8 -37 -14 4
-29 47 -16 47 6 0 8 4 5 9 -3 4 6 19 21 32 20 18 25 20 20 7 -10 -28 12 -21
23 7 5 14 12 25 15 25 4 0 3 -4 0 -10z m155 -110 c0 -5 -4 -10 -10 -10 -5 0
-10 5 -10 10 0 6 5 10 10 10 6 0 10 -4 10 -10z m-300 -81 c0 -5 -4 -9 -10 -9
-5 0 -10 7 -10 16 0 8 5 12 10 9 6 -3 10 -10 10 -16z m1318 -340 c-2 -6 -8
-10 -13 -10 -5 0 -11 4 -13 10 -2 6 4 11 13 11 9 0 15 -5 13 -11z m-98 -53 c0
-15 -24 -28 -34 -19 -13 14 -5 33 14 33 11 0 20 -6 20 -14z m-2050 -267 c0
-15 -18 -19 -23 -6 -3 8 1 14 9 14 8 0 14 -4 14 -8z m5700 -30 c0 -5 -7 -9
-15 -9 -15 0 -20 12 -9 23 8 8 24 -1 24 -14z m-5540 -109 c0 -5 -7 -7 -15 -4
-8 4 -12 10 -9 15 6 11 24 2 24 -11z m159 -61 c-8 -5 -16 -3 -21 4 -4 7 0 15
10 18 21 8 30 -10 11 -22z m2 -62 c-1 -12 -15 -9 -19 4 -3 6 1 10 8 8 6 -3 11
-8 11 -12z m2379 -306 c0 -5 -7 -11 -14 -14 -10 -4 -13 -1 -9 9 6 15 23 19 23
5z m-3172 -84 c3 -13 -4 -17 -25 -16 -15 0 -22 3 -15 6 6 2 12 11 12 20 0 20
24 11 28 -10z m42 -55 c0 -4 -18 -13 -40 -19 -22 -5 -40 -7 -40 -3 0 3 17 11
38 17 20 6 38 11 40 12 1 0 2 -3 2 -7z m-55 -42 c-3 -5 -12 -10 -18 -10 -7 0
-6 4 3 10 19 12 23 12 15 0z m-25 -165 c0 -8 -7 -15 -15 -15 -16 0 -20 12 -8
23 11 12 23 8 23 -8z m-23 -157 c0 -7 4 -21 8 -30 8 -21 -14 -25 -33 -6 -9 9
-8 16 5 30 19 21 20 22 20 6z m-54 -283 c-3 -9 -8 -14 -10 -11 -3 3 -2 9 2 15
9 16 15 13 8 -4z"/>
<path d="M2686 4683 c-6 -14 -5 -15 5 -6 7 7 10 15 7 18 -3 3 -9 -2 -12 -12z"/>
<path d="M2605 4521 c-3 -5 -2 -12 3 -15 5 -3 9 1 9 9 0 17 -3 19 -12 6z"/>
<path d="M2800 4516 c0 -17 14 -29 23 -20 8 8 -3 34 -14 34 -5 0 -9 -6 -9 -14z"/>
<path d="M3042 4294 c-14 -16 -5 -18 17 -5 7 5 9 11 5 14 -5 3 -15 -1 -22 -9z"/>
<path d="M2990 4260 c0 -5 5 -10 10 -10 6 0 10 5 10 10 0 6 -4 10 -10 10 -5 0
-10 -4 -10 -10z"/>
<path d="M2780 2918 c0 -6 -7 -19 -15 -28 -13 -14 -12 -16 5 -17 11 -1 20 2
20 7 0 5 7 7 15 4 18 -7 19 5 1 29 -15 20 -26 22 -26 5z"/>
<path d="M2896 2921 c-11 -17 41 -38 56 -23 9 9 7 12 -8 12 -11 0 -25 5 -31
11 -8 8 -13 8 -17 0z"/>
<path d="M3161 7051 c-8 -5 -20 -7 -28 -4 -7 3 -13 0 -13 -6 0 -6 7 -11 15
-11 9 0 12 -6 9 -17 -5 -15 -4 -16 5 -3 15 20 32 50 29 50 -2 0 -9 -4 -17 -9z"/>
<path d="M2078 6616 c-14 -12 -29 -31 -33 -43 -3 -13 -11 -23 -16 -23 -9 0 -6
-59 3 -64 2 -1 10 -7 19 -14 20 -15 49 -6 49 15 0 8 5 11 13 7 6 -4 0 6 -15
23 -32 33 -34 45 -13 63 10 9 15 9 15 1 0 -8 6 -8 20 1 29 18 31 32 5 44 -17
9 -27 7 -47 -10z"/>
<path d="M2709 6268 c-5 -22 -4 -34 5 -40 5 -3 9 -20 8 -38 -1 -31 0 -31 19
-14 25 22 26 56 2 47 -15 -6 -16 -4 -6 8 8 9 9 20 3 29 -8 12 -10 11 -11 -5
l0 -20 -9 20 c-5 11 -9 17 -11 13z"/>
<path d="M2804 6138 c-4 -6 -2 -14 4 -16 6 -2 8 -10 5 -18 -3 -8 0 -14 5 -14
13 0 25 36 17 50 -8 13 -22 13 -31 -2z"/>
<path d="M2915 5890 c3 -5 13 -10 21 -10 8 0 14 5 14 10 0 6 -9 10 -21 10 -11
0 -17 -4 -14 -10z"/>
<path d="M2976 5298 c3 -5 10 -6 15 -3 13 9 11 12 -6 12 -8 0 -12 -4 -9 -9z"/>
<path d="M4480 5211 c0 -7 -4 -10 -9 -7 -4 3 -16 -3 -25 -13 -17 -18 -16 -20
1 -30 10 -6 12 -11 6 -11 -23 0 -13 -17 18 -30 59 -25 276 12 266 45 -5 14
-69 19 -77 5 -4 -6 -35 -14 -69 -17 l-61 -6 0 33 c0 23 -4 31 -14 27 -7 -3
-19 0 -25 6 -8 8 -11 8 -11 -2z"/>
<path d="M4555 5200 c-3 -5 -1 -10 4 -10 6 0 11 5 11 10 0 6 -2 10 -4 10 -3 0
-8 -4 -11 -10z"/>
<path d="M4570 5068 c-19 -5 -39 -13 -43 -18 -5 -4 -24 -4 -44 0 -19 5 -32 6
-29 2 3 -3 0 -15 -7 -26 -17 -26 -28 -113 -20 -161 6 -40 36 -59 82 -52 26 4
26 4 -6 17 -25 11 -33 22 -38 51 -8 45 12 117 34 122 9 2 32 3 51 2 19 -1 52
-3 72 -3 31 -2 40 -7 53 -32 9 -18 23 -30 35 -30 17 0 19 5 13 31 -3 18 -2 30
3 28 5 -2 42 -17 82 -32 58 -23 72 -33 72 -50 0 -15 10 -27 32 -36 39 -18 115
-25 123 -12 3 6 -20 27 -52 47 -32 20 -59 41 -61 45 -2 5 -10 9 -18 9 -8 0
-42 14 -76 30 -33 17 -73 30 -88 30 -16 0 -30 4 -32 10 -1 5 -16 11 -33 12
-16 1 -39 7 -50 14 -14 8 -31 9 -55 2z"/>
<path d="M4390 5060 c0 -13 18 -22 24 -11 3 5 -1 11 -9 15 -8 3 -15 1 -15 -4z"/>
<path d="M4355 5040 c-3 -5 -1 -10 4 -10 6 0 11 5 11 10 0 6 -2 10 -4 10 -3 0
-8 -4 -11 -10z"/>
<path d="M4548 4949 c-11 -6 -18 -22 -18 -38 0 -24 5 -30 31 -35 44 -8 59 -8
59 3 0 6 -15 11 -32 13 -40 4 -44 22 -5 26 29 4 37 26 11 36 -21 8 -26 7 -46
-5z"/>
<path d="M4690 4878 c-7 -18 -23 -41 -34 -50 -19 -15 -19 -17 -4 -23 36 -14
78 33 78 86 0 31 -26 22 -40 -13z"/>
<path d="M4230 4843 c1 -23 20 -34 56 -31 l39 3 -39 18 c-42 19 -56 21 -56 10z"/>
<path d="M3936 3451 c-7 -10 18 -34 27 -25 7 8 -3 34 -13 34 -5 0 -11 -4 -14
-9z"/>
<path d="M4727 3189 c8 -8 16 -8 30 0 16 9 14 10 -11 11 -22 0 -27 -3 -19 -11z"/>
<path d="M4545 3150 c-27 -5 -71 -9 -97 -9 -44 -1 -48 -3 -48 -25 0 -29 -33
-56 -68 -56 -12 0 -36 -10 -53 -22 -19 -14 -44 -22 -72 -23 -28 0 -47 -6 -57
-18 -8 -10 -37 -24 -65 -32 l-50 -13 38 -1 c22 -1 53 5 70 13 52 22 118 38
177 42 30 2 73 7 95 10 48 7 125 40 125 54 0 6 5 10 10 10 16 0 81 66 73 73
-7 8 -7 8 -78 -3z"/>
<path d="M3835 3140 c3 -5 18 -10 33 -10 21 0 24 2 12 10 -20 13 -53 13 -45 0z"/>
<path d="M1536 3034 c-9 -24 -7 -34 7 -34 24 0 37 21 22 36 -17 18 -22 18 -29
-2z"/>
<path d="M3890 2960 c-8 -5 -41 -10 -72 -10 -31 0 -60 -5 -64 -11 -7 -11 191
-12 251 -1 27 5 25 7 -20 13 -27 4 -57 10 -65 13 -8 3 -22 1 -30 -4z"/>
<path d="M1450 2944 c0 -8 5 -12 10 -9 6 4 8 11 5 16 -9 14 -15 11 -15 -7z"/>
<path d="M1410 2922 c-21 -7 -28 -21 -23 -43 6 -23 13 -24 38 -5 15 10 17 18
10 33 -6 12 -16 18 -25 15z"/>
<path d="M1257 2363 c-4 -7 -3 -22 3 -33 6 -11 8 -25 5 -30 -3 -5 -1 -18 4
-27 9 -15 10 -13 10 12 -2 50 -14 91 -22 78z"/>
<path d="M4850 2230 c0 -24 15 -27 24 -4 9 22 8 24 -9 24 -8 0 -15 -9 -15 -20z"/>
<path d="M366 1895 c4 -8 8 -15 10 -15 2 0 4 7 4 15 0 8 -4 15 -10 15 -5 0 -7
-7 -4 -15z"/>
<path d="M4430 1745 c-7 -8 -8 -15 -2 -15 5 0 15 7 22 15 7 8 8 15 2 15 -5 0
-15 -7 -22 -15z"/>
<path d="M4285 1690 c-4 -6 7 -10 24 -10 17 0 31 5 31 10 0 6 -11 10 -24 10
-14 0 -28 -4 -31 -10z"/>
<path d="M4085 1670 c-11 -4 -30 -6 -41 -3 -12 2 -25 0 -28 -6 -10 -15 34 -17
188 -7 11 0 21 6 23 11 4 12 -114 16 -142 5z"/>
<path d="M3955 1660 c-3 -5 -1 -10 4 -10 6 0 11 5 11 10 0 6 -2 10 -4 10 -3 0
-8 -4 -11 -10z"/>
<path d="M190 1360 c-14 -4 -20 -9 -15 -10 6 -1 17 -3 26 -5 9 -1 16 4 16 11
0 8 -1 14 -1 13 -1 -1 -12 -5 -26 -9z"/>
</g>
</svg>
