<?xml version="1.0" encoding="utf-8"?>
<!-- Svg Vector Icons : http://www.onlinewebfonts.com/icon -->
<!DOCTYPE svg PUBLIC "-//W3C//DTD SVG 1.1//EN" "http://www.w3.org/Graphics/SVG/1.1/DTD/svg11.dtd">
<svg version="1.1" xmlns="http://www.w3.org/2000/svg" xmlns:xlink="http://www.w3.org/1999/xlink" x="0px" y="0px" viewBox="0 0 1000 1000" enable-background="new 0 0 1000 1000" xml:space="preserve">
<g><path d="M671.2,216.7l-62.3,179.4l64,11.5C733,243.2,763,148.7,763,124.3c0-20.4-6.9-30.6-20.8-30.6C721.5,93.7,697.8,134.7,671.2,216.7z M507.7,592.4l18,48.1c13.5-15.3,26.4-27.5,38.8-36.6l-18-3l-21.1-3.8L507.7,592.4z M348,102.4c0,35.7,29,130.7,87,284.9c6.6-3.6,15.5-5.5,26.8-5.5c5.5,0,19.1,0.9,41,2.7l-66.2-192c-27.3-80.2-49.8-120.3-67.3-120.3c-6.9,0-12.2,3.2-15.9,9.6S348,95.1,348,102.4z M304.8,517.5c0,13.1,9.4,34.8,28.2,65.1s40.2,58.2,64.3,83.7s42.3,38.3,54.7,38.3c5.1,0,9.8-2.4,13.9-7.1s6.3-9.7,6.3-14.8c0-8.8-5.8-27.3-17.5-55.8c-4.7-11.7-10.6-24.8-17.5-39.4s-15.6-30.8-26-48.7s-21.6-32.6-33.6-44.3S354.2,477,343.6,477c-7.3,0-15.6,4.9-24.9,14.8S304.8,510.2,304.8,517.5z M218.4,700.7c0,14.9,4.6,33.9,13.7,56.9c21.5,52.9,55,94.2,100.4,124.1s96.7,44.8,153.9,44.8c82.8,0,152.4-31,208.9-93c55.4-61.6,83.1-139.5,83.1-233.5c0-15.7-0.2-27.9-0.5-36.6s-2.5-20.1-6.3-33.9s-9.4-24.1-16.7-30.6c-20.4-17.9-59-31.6-115.7-41.3s-106-14.5-147.9-14.5c-13.5,0-22.4,2-26.8,6c-4.4,1.8-6.6,8.2-6.6,19.1c0,12.4,3.9,23.3,11.8,32.8s18,16.8,30.4,21.9s26.5,9.4,42.4,12.9s31.8,5.6,47.9,6.3s31.5,1.5,46.5,2.2s27.7,0.7,38.3,0h12.6c8.8,0,16,3.5,21.9,10.4c5.5,6.9,8.9,17,10.4,30.1c-10.2,10.2-27.7,20.1-52.5,29.5c-22.2,8-39.2,16.4-50.9,25.2c-23.3,16.8-43.1,37.6-59.3,62.3s-24.3,49.8-24.3,74.9c0,11.3,3.4,27.4,10.1,48.4S553,862,553,873l-1.6,6.6c-1.5,4.4-2.2,6.9-2.2,7.7c-49.9-3.6-76.6-43-79.8-118.1c-2.9,0.7-10.4,1.1-22.4,1.1c0.7,2.6,1.1,6.4,1.1,11.5c0,19.3-7.4,35.6-22.1,48.9s-32,20-51.7,20c-29.9,0-60.2-14.2-91.1-42.7c-30.8-28.4-46.2-57.4-46.2-87c0-12.4,6-24.6,18-36.6c19,23.3,29.9,37.2,32.8,41.6c28.1,37.9,52.3,56.9,72.7,56.9c4.4,0,9.2-1.5,14.5-4.6s7.9-6.8,7.9-11.2c0-12.4-16-38.8-47.9-79.3s-53.1-60.7-63.7-60.7c-15.7,0-28.4,8.1-38.3,24.3S218.4,683.9,218.4,700.7z M156,705.6c0-36.8,7.7-66.5,23.2-89.1s40.4-38.6,74.6-48.1c-10.2-27-15.3-45.9-15.3-56.9c0-22.6,11.1-45,33.4-67.3c22.2-22.2,44.5-33.4,66.7-33.4c10.6,0,23.3,2.7,38.3,8.2c-59.4-168.4-89.1-271.8-89.1-310.1c0-29.2,7.5-53,22.4-71.4C325.2,19.2,346.9,10,375.3,10c47.8,0,107,105.9,177.7,317.7c2.2,6.2,3.6,10.4,4.4,12.6c2.2-5.8,7.5-20.3,15.9-43.5c8.4-23.2,16.3-44.8,23.8-64.8s17.3-43.3,29.5-69.7c12.2-26.4,24-48.9,35.3-67.3c11.3-18.4,24.2-34.2,38.6-47.3S728.8,28,742.3,28c25.9,0,46.3,8.9,61.3,26.8c14.9,17.9,22.4,40.1,22.4,66.7c0,39.4-29,139.6-87,300.8c22.2,5.5,40.6,13.9,55,25.2c14.4,11.3,25.1,25.5,32,42.7s11.7,34.2,14.2,51.1s3.8,37.1,3.8,60.4c0,54.7-8.6,105.7-25.7,153.1s-41.2,88.4-72.2,123s-69.5,62-115.4,82s-96.6,30.1-152,30.1c-40.5,0-81.1-7.7-122-23c-54.3-20.8-101.4-55.7-141.1-104.7S156,761,156,705.6z"/></g>
</svg>